<svg id="Layer_1" data-name="Layer 1" xmlns="http://www.w3.org/2000/svg" xmlns:xlink="http://www.w3.org/1999/xlink" viewBox="0 0 459.61 422"><defs><style>.cls-1{fill:url(#linear-gradient);}</style><linearGradient id="linear-gradient" x1="64.05" y1="326.47" x2="460.22" y2="93.5" gradientUnits="userSpaceOnUse"><stop offset="0" stop-color="#22b573"/><stop offset="0.25" stop-color="#16b182"/><stop offset="0.68" stop-color="#06ab96"/><stop offset="0.97" stop-color="#00a99d"/></linearGradient></defs><title>emtelak_logo</title><path class="cls-1" d="M319,345.88a10.24,10.24,0,0,0-.93-2.95,5,5,0,0,0-3.94-2.9,9.77,9.77,0,0,0-3.1,0c-3.14.58-4.59,2.17-4.55,5.22v9.2c0,2.45,0,4.89,0,7.34,0,1,.14,1.2,1,1.21,2.28,0,4.56,0,6.84,0a3.91,3.91,0,0,0,3.19-1.66,7,7,0,0,0,1-2.51A31.2,31.2,0,0,0,319,345.88Zm0,0a10.24,10.24,0,0,0-.93-2.95,5,5,0,0,0-3.94-2.9,9.77,9.77,0,0,0-3.1,0c-3.14.58-4.59,2.17-4.55,5.22v9.2c0,2.45,0,4.89,0,7.34,0,1,.14,1.2,1,1.21,2.28,0,4.56,0,6.84,0a3.91,3.91,0,0,0,3.19-1.66,7,7,0,0,0,1-2.51A31.2,31.2,0,0,0,319,345.88Zm0,0a10.24,10.24,0,0,0-.93-2.95,5,5,0,0,0-3.94-2.9,9.77,9.77,0,0,0-3.1,0c-3.14.58-4.59,2.17-4.55,5.22v9.2c0,2.45,0,4.89,0,7.34,0,1,.14,1.2,1,1.21,2.28,0,4.56,0,6.84,0a3.91,3.91,0,0,0,3.19-1.66,7,7,0,0,0,1-2.51A31.2,31.2,0,0,0,319,345.88Zm0,0a10.24,10.24,0,0,0-.93-2.95,5,5,0,0,0-3.94-2.9,9.77,9.77,0,0,0-3.1,0c-3.14.58-4.59,2.17-4.55,5.22v9.2c0,2.45,0,4.89,0,7.34,0,1,.14,1.2,1,1.21,2.28,0,4.56,0,6.84,0a3.91,3.91,0,0,0,3.19-1.66,7,7,0,0,0,1-2.51A31.2,31.2,0,0,0,319,345.88ZM457.82,178.27,387.64,56.73A89.45,89.45,0,0,0,310.17,12H169.83A89.45,89.45,0,0,0,92.36,56.73L22.18,178.27a89.46,89.46,0,0,0,0,89.46L92.36,389.27A89.45,89.45,0,0,0,169.83,434H310.17a89.45,89.45,0,0,0,77.47-44.73l70.18-121.54A89.46,89.46,0,0,0,457.82,178.27ZM299.39,101.08q2.94-8.55,5.5-17.22a4.44,4.44,0,0,1,1-2.24c.67.41.67,1,.79,1.47a99.15,99.15,0,0,1-5.3,63.42c-2,4.76-4.47,9.32-6.77,14-.17.35-.37.7-.53,1.06-1,2.09-.18,3.16,2.15,3A233,233,0,0,0,319.58,161c22.07-4.13,44-9,65.9-13.88l41.11-9.19a7.31,7.31,0,0,1,2.7-.28,11.73,11.73,0,0,1-4,3.72,172.42,172.42,0,0,1-18.05,8.74c-17.86,7.5-36.2,13.61-54.69,19.33q-22.59,7-45.54,12.71c-13.24,3.3-26.55,6.32-40,8.43q-9.61,1.5-19.33,2.16a7.28,7.28,0,0,1-2-.06,1.92,1.92,0,0,1-1.2-3.19,7.56,7.56,0,0,1,1-1A153.33,153.33,0,0,0,267.81,163a224.85,224.85,0,0,0,20.88-35.38A256.83,256.83,0,0,0,299.39,101.08ZM267,313a5.89,5.89,0,0,1,5.76,5.67,5.8,5.8,0,0,1-5.71,5.86,5.71,5.71,0,0,1-5.78-5.75C261.08,315.5,264.24,313,267,313Zm5.52-32.16c-1,.17-1-1-1.26-1.71A305.81,305.81,0,0,0,258.35,251c-3.08-5.87-6.43-11.58-10-17.17a7.67,7.67,0,0,0-.61-.68,6.14,6.14,0,0,0-.17,1.06c.1,4.18-.34,8.33-.51,12.5-.2,5-.71,9.9-1,14.85s-.79,10-1.32,15c-1.12,10.54-2.66,21-4.75,31.41a1.4,1.4,0,0,1-.52,1c-1.49-2.41-5.14-26.82-6-37.71-1-12.71-1.76-25.44-2.58-38.23-9.73,15-17.47,30.92-24.33,47.56a2.79,2.79,0,0,1-.86-2.38,79.52,79.52,0,0,1,.44-13.09,129.38,129.38,0,0,1,4.63-22.54c4.32-13.82,11-26.21,21.53-36.37,1.62-1.57,3.2-3.18,4.87-4.69,1.94-1.75,3.12-1.78,5-.05a89.13,89.13,0,0,1,18.56,23.14c6.57,12,10.12,24.83,11.88,38.29a110.93,110.93,0,0,1,.71,15.46,2.54,2.54,0,0,1,0,.39C273.29,279.57,273.44,280.68,272.55,280.84ZM205.72,110.07a5.66,5.66,0,0,1,.33-2.34c.16-.36.32-.76.8-.75s.55.34.68.63c.22.49.42,1,.61,1.47a285.85,285.85,0,0,0,12.73,27.81q4.4,8.36,9.43,16.34a2.1,2.1,0,0,0,1.14,1.12c.16-2.27.41-4.37.44-6.48.09-6,.54-11.9,1-17.84q.79-11.58,2.17-23.13c1.05-8.68,2.36-17.31,4.05-25.89a3.39,3.39,0,0,1,.69-2c.61.16.57.69.66,1.12,1.71,8.17,3,16.41,4,24.69,1,7.89,1.66,15.8,2.24,23.72.39,5.21.76,10.43.94,15.65.11,3.18.4,6.35.41,9.53a1,1,0,0,0,.59,1.14c4.76-7.45,9.05-15.19,13.06-23.08s7.51-15.86,11-24.11c.35.41.57.54.58.69a52.59,52.59,0,0,1,.41,6.13,133.39,133.39,0,0,1-3.08,22.6c-2.65,11.66-6.88,22.68-13.62,32.63a86.65,86.65,0,0,1-15.21,16.95c-1.7,1.47-2.63,1.51-4.36.06a81.71,81.71,0,0,1-14.06-15.59c-7.81-11-12.48-23.3-15.22-36.4A106.4,106.4,0,0,1,205.72,110.07ZM52,137.48c8.21,1.83,16.42,3.64,24.62,5.51,23.7,5.38,47.4,10.71,71.23,15.51,9,1.82,18.06,3.55,27.17,4.9,2.42.36,4.86.59,7.29.87a5.22,5.22,0,0,0,.79,0c2.11-.07,2.74-1.13,1.74-3-2.14-4-4.13-8-6-12.09a99.84,99.84,0,0,1-6.67-66.3c.12-.54.07-1.21.73-1.54.65.5.69,1.28.9,2,2.32,7.46,4.61,14.93,7.29,22.28a233.76,233.76,0,0,0,22.83,46.66,205.88,205.88,0,0,0,15.51,21.37,118.59,118.59,0,0,0,14,14.63c.15.13.3.26.44.4a2.06,2.06,0,0,1,.75,2.47,2.32,2.32,0,0,1-2.45,1.33c-1.46-.07-2.91-.17-4.36-.31a303.51,303.51,0,0,1-33.92-5.3c-20-4.27-39.81-9.48-59.44-15.28C123.54,168.38,112.74,165,102,161.3c-13.85-4.76-27.59-9.79-40.8-16.15-2.63-1.27-5.2-2.64-7.74-4.08-2.34-1.32-3.09-2.13-3.78-3.65A3.46,3.46,0,0,1,52,137.48ZM55,249.7a30.66,30.66,0,0,1-5.13.84,8.18,8.18,0,0,1,3.07-3.26,51.57,51.57,0,0,1,5.9-3.29,255.42,255.42,0,0,1,27.55-11.82c24-8.94,48.42-16.39,73.14-23,14.27-3.8,28.62-7.27,43.14-10a199.16,199.16,0,0,1,21.21-3.08c2.64-.21,5.25-.71,7.9-.74.47,0,.93,0,1.39,0a1.94,1.94,0,0,1,1.88,1.22,1.92,1.92,0,0,1-.56,2.17c-1.23,1.21-2.47,2.4-3.72,3.59-12.62,12.13-22.6,26.27-31.42,41.29-10.33,17.59-17.69,36.42-23.59,55.88-.54,1.78-1.08,3.55-1.64,5.32-.15.49-.2,1.05-.7,1.38-.65-.06-.63-.61-.72-1a103.64,103.64,0,0,1-2.78-19c-.12-3.11-.18-6.2-.07-9.32a99.44,99.44,0,0,1,4.28-25c2.6-8.68,6.66-16.72,10.78-24.73.18-.36.38-.7.54-1.07.69-1.62-.1-2.81-1.88-2.66-2.57.22-5.14.49-7.69.88-17.95,2.7-35.68,6.54-53.42,10.35C99.9,239.45,77.46,244.68,55,249.7Zm98.68,88.48a6.55,6.55,0,0,1-1.88-6.49c.89-4.05,4.21-6.7,8.63-6.9a8.49,8.49,0,0,1,4.35.79,4.15,4.15,0,0,1,2.12,4.93,2.44,2.44,0,0,1-1.94,1.86,4.8,4.8,0,0,1-2.68-.29c-.52-.17-.61-.63-.65-1.1a2.67,2.67,0,0,0-.84-1.88c-.68-.6-1.14-.56-1.62.19a5.27,5.27,0,0,0,4.36,8.43,9.31,9.31,0,0,0,2-.17,6,6,0,0,1,.74-.11c1-.08,1.95-.12,2.5.92a3.18,3.18,0,0,1-.13,3.31,1.71,1.71,0,0,1-1.6.78,65.79,65.79,0,0,0-7.42.55,24.91,24.91,0,0,0-4.28.75,3.64,3.64,0,0,0-1.93,1.05c-.47.56-.92.43-1.41.09a3,3,0,0,1,.28-5.25,8.44,8.44,0,0,1,2.06-.67A1.65,1.65,0,0,0,153.65,338.18ZM180,372.34c-6.76,0-13.51,0-20.27,0h-19.9a9.85,9.85,0,0,1-6.14-2,11.24,11.24,0,0,1-3.3-4.45,16.21,16.21,0,0,1-1.44-6.51c0-3.07,0-6.14,0-9.21a6.14,6.14,0,0,1,.51-2.54,4.83,4.83,0,0,1,3.54-3,8,8,0,0,1,2.72-.12,5.28,5.28,0,0,1,4.72,5.49c0,2.45,0,4.89,0,7.34a11.72,11.72,0,0,0,.29,2.71,3.43,3.43,0,0,0,3.56,3c.38,0,.75,0,1.12,0h28.61c.37,0,.75,0,1.12,0a3.54,3.54,0,0,0,3.56-2.89,11.09,11.09,0,0,0,.27-3.09V337.78c0-3.69,0-7.38,0-11.07a8.84,8.84,0,0,0-.32-2.46,5.11,5.11,0,0,0-2.62-3.17c-1.06-.56-1.12-.74-.72-1.84a6.59,6.59,0,0,1,3.65-3.88,7.94,7.94,0,0,1,8.74,1.68,10.62,10.62,0,0,1,2.73,6.15,41.17,41.17,0,0,1,.23,4.84c0,9.7,0,19.4,0,29.1a25.48,25.48,0,0,1-.49,5.31,13.75,13.75,0,0,1-3.47,7A9,9,0,0,1,180,372.34Zm150.81-16.93a27,27,0,0,1-1.88,8.33,13.47,13.47,0,0,1-10.66,8.53,18.42,18.42,0,0,1-11.2-1.18,1.76,1.76,0,0,0-1.55,0,18,18,0,0,1-7,1.29q-10.44-.08-20.89,0a13.27,13.27,0,0,1-7.73-2.3c-.93-.62-1-.64-1.83,0a11.11,11.11,0,0,1-7.43,2.3c-2.65-.11-5.3,0-8,0a12.53,12.53,0,0,1-6.21-1.52,2,2,0,0,0-2.39.11,9,9,0,0,1-5.08,1.41c-11.36,0-22.71,0-34.07,0-3.14,0-4.84-2.53-4.48-5.41A4.45,4.45,0,0,1,205,363c2.61.09,5.22,0,7.84,0,1.44,0,1.51-.07,1.51-1.44q0-11.13,0-22.26a9.49,9.49,0,0,0-.49-3.18,4.63,4.63,0,0,0-2.5-2.79c-1.16-.51-1.05-1-.68-1.87A6.67,6.67,0,0,1,216.4,327a7.87,7.87,0,0,1,8.12,4.35,14.25,14.25,0,0,1,1.47,7c0,7.59,0,15.17,0,22.76,0,1.9,0,1.91,1.92,1.91s4.07,0,6.1,0c2.63,0,3.74-1,4.17-3.62a14.62,14.62,0,0,0,.21-2.47q0-14.55,0-29.1a16.85,16.85,0,0,0-.3-3.09,5,5,0,0,0-2.69-3.67c-1-.57-1.12-.74-.73-1.84a6.78,6.78,0,0,1,5.92-4.44c4.46-.21,7.62,2.1,8.79,6.45a14.7,14.7,0,0,1,.53,3.8c0,5.68,0,11.36,0,17h0v15a29,29,0,0,1-.27,4.84c-.18,1-.1,1.07.92,1.08,2.69,0,5.39,0,8.08,0a33.11,33.11,0,0,0,4.22-.19,11.06,11.06,0,0,0,4.37-1.68,2,2,0,0,0,1-1.95c-.05-4,0-7.95,0-11.93V336.24a6.41,6.41,0,0,1,1.18-3.86,3.49,3.49,0,0,1,.56-.65c2-1.68,4.32-1.62,6.59-.88s2.91,2.57,3.19,4.65a14.55,14.55,0,0,1,0,1.62q0,9.75,0,19.52a17.74,17.74,0,0,0,.26,3.09c.37,2.23,1.55,3.28,3.81,3.31,3.23,0,6.47,0,9.7,0,1.22,0,1.3-.1,1.3-1.39,0-4.23,0-8.46,0-12.68a36.31,36.31,0,0,1,1.22-9,16.4,16.4,0,0,1,1.85-4.33,9.66,9.66,0,0,1,6-4.38,21.15,21.15,0,0,1,5.76-.82A37.74,37.74,0,0,1,318,331a14,14,0,0,1,7.3,3.49,17,17,0,0,1,4.7,8.2A39.37,39.37,0,0,1,330.84,355.41Zm-55.5-36.69a5.7,5.7,0,0,1,6-5.67,5.55,5.55,0,0,1,5.6,5.74,5.75,5.75,0,0,1-5.79,5.75A5.9,5.9,0,0,1,275.34,318.72Zm65.7.77a6.29,6.29,0,0,1,4.27-4.35c4-1.1,7.42.09,9.53,3.82a12.89,12.89,0,0,1,1.53,6.46c0,6.75,0,13.51,0,20.26h0v20.26a8.73,8.73,0,0,1-.18,2.22c-.84,3.33-2.9,4.29-5.82,4.29a6.58,6.58,0,0,1-2-.27c-2.16-.69-3.12-2.35-3.52-4.42a13.2,13.2,0,0,1-.23-2.59c0-10.07,0-20.14,0-30.2,0-2.11.16-4.22.15-6.34a29.1,29.1,0,0,0-.18-3.09,5.49,5.49,0,0,0-3-4.54C340.91,320.6,340.76,320.31,341,319.49Zm18.14,74.14a1.82,1.82,0,0,1-1.46.55,57.48,57.48,0,0,0-7.42.55c-1.15.13-2.3.29-3.44.52a4.92,4.92,0,0,0-3,1.4c-.39.45-.83.24-1.23,0a2.93,2.93,0,0,1-.58-4.51,4.16,4.16,0,0,1,2.4-1.21c.56-.1.59-.29.22-.73a2.23,2.23,0,0,0-.26-.27c-3.38-2.87-2.22-7.94,0-10.29,2-2.11,4.12-2.95,7.47-3.11a8.78,8.78,0,0,1,3.7.85,4.29,4.29,0,0,1,1.85,5.47,2.6,2.6,0,0,1-2.35,1.37,4.65,4.65,0,0,1-1.94-.36,1.08,1.08,0,0,1-.73-1.05,3.4,3.4,0,0,0-.48-1.52c-.68-1-1.57-1.06-2.23,0a4.93,4.93,0,0,0-.32,5.5,5.51,5.51,0,0,0,5.32,2.78c.78,0,1.56-.22,2.34-.31,1.33-.15,2,.13,2.44,1A3.26,3.26,0,0,1,359.18,393.63ZM427.5,250.44c-5.05-1.08-10.1-2.15-15.14-3.29C394,243,375.55,238.8,357.1,234.84c-16.64-3.56-33.28-7.1-50.08-9.81-3.27-.52-6.56-.86-9.85-1.29a5.68,5.68,0,0,0-.59,0c-2.42-.06-3.15,1.09-2,3.24,2.12,4,4.13,8,6,12.1A99.44,99.44,0,0,1,307,305.57a4.74,4.74,0,0,1-.26.75,2.34,2.34,0,0,1-.37.43,3.69,3.69,0,0,1-.94-2c-2.9-9.51-5.9-19-9.53-28.23a230.38,230.38,0,0,0-20-39.88,211.81,211.81,0,0,0-15.29-21.29,136.19,136.19,0,0,0-14.9-15.67,5,5,0,0,1-.94-1,1.88,1.88,0,0,1,.77-2.85,3.38,3.38,0,0,1,1.93-.36c2.76.28,5.53.53,8.29.83,25.64,2.78,50.47,9.38,75.26,16.16,13.73,3.76,27.34,8,40.84,12.47,13.32,4.47,26.53,9.2,39.4,14.85a157,157,0,0,1,14.23,7.08,11.24,11.24,0,0,1,4.12,3.49C428.86,250.9,428.15,250.59,427.5,250.44ZM318,342.93a5,5,0,0,0-3.94-2.9,9.77,9.77,0,0,0-3.1,0c-3.14.58-4.59,2.17-4.55,5.22v9.2c0,2.45,0,4.89,0,7.34,0,1,.14,1.2,1,1.21,2.28,0,4.56,0,6.84,0a3.91,3.91,0,0,0,3.19-1.66,7,7,0,0,0,1-2.51,31.2,31.2,0,0,0,.46-12.94A10.24,10.24,0,0,0,318,342.93Zm.93,2.95a10.24,10.24,0,0,0-.93-2.95,5,5,0,0,0-3.94-2.9,9.77,9.77,0,0,0-3.1,0c-3.14.58-4.59,2.17-4.55,5.22v9.2c0,2.45,0,4.89,0,7.34,0,1,.14,1.2,1,1.21,2.28,0,4.56,0,6.84,0a3.91,3.91,0,0,0,3.19-1.66,7,7,0,0,0,1-2.51A31.2,31.2,0,0,0,319,345.88Zm0,0a10.24,10.24,0,0,0-.93-2.95,5,5,0,0,0-3.94-2.9,9.77,9.77,0,0,0-3.1,0c-3.14.58-4.59,2.17-4.55,5.22v9.2c0,2.45,0,4.89,0,7.34,0,1,.14,1.2,1,1.21,2.28,0,4.56,0,6.84,0a3.91,3.91,0,0,0,3.19-1.66,7,7,0,0,0,1-2.51A31.2,31.2,0,0,0,319,345.88Zm0,0a10.24,10.24,0,0,0-.93-2.95,5,5,0,0,0-3.94-2.9,9.77,9.77,0,0,0-3.1,0c-3.14.58-4.59,2.17-4.55,5.22v9.2c0,2.45,0,4.89,0,7.34,0,1,.14,1.2,1,1.21,2.28,0,4.56,0,6.84,0a3.91,3.91,0,0,0,3.19-1.66,7,7,0,0,0,1-2.51A31.2,31.2,0,0,0,319,345.88Zm0,0a10.24,10.24,0,0,0-.93-2.95,5,5,0,0,0-3.94-2.9,9.77,9.77,0,0,0-3.1,0c-3.14.58-4.59,2.17-4.55,5.22v9.2c0,2.45,0,4.89,0,7.34,0,1,.14,1.2,1,1.21,2.28,0,4.56,0,6.84,0a3.91,3.91,0,0,0,3.19-1.66,7,7,0,0,0,1-2.51A31.2,31.2,0,0,0,319,345.88Z" transform="translate(-10.2 -12)"/></svg>